<svg width="40" height="40" fill="none" xmlns="http://www.w3.org/2000/svg"><path fill-rule="evenodd" clip-rule="evenodd" d="M20 8.25c-6.627 0-12 5.394-12 12.048 0 5.322 3.438 9.838 8.207 11.431.6.113.82-.261.82-.58l-.017-2.05c-3.339.729-4.043-1.614-4.043-1.614-.545-1.392-1.332-1.762-1.332-1.762-1.09-.748.083-.733.083-.733 1.204.085 1.837 1.242 1.837 1.242 1.071 1.841 2.809 1.31 3.493 1 .109-.778.42-1.31.762-1.612-2.665-.304-5.466-1.337-5.466-5.954 0-1.315.467-2.39 1.235-3.233-.123-.305-.535-1.53.117-3.188 0 0 1.008-.324 3.3 1.235a11.48 11.48 0 013.005-.406c1.019.005 2.046.139 3.004.406 2.29-1.559 3.297-1.235 3.297-1.235.654 1.659.242 2.883.119 3.188.77.843 1.233 1.918 1.233 3.233 0 4.628-2.805 5.647-5.478 5.945.43.372.814 1.107.814 2.231l-.015 3.305c0 .323.216.698.825.58a12.043 12.043 0 008.2-11.43C32 13.644 26.627 8.25 20 8.25z" fill="#3E75C3"/></svg>